<?xml version="1.0" encoding="UTF-8"?>
<!DOCTYPE svg PUBLIC "-//W3C//DTD SVG 1.1//EN" "http://www.w3.org/Graphics/SVG/1.1/DTD/svg11.dtd">
<!-- Creator: CorelDRAW 2017 -->
<svg xmlns="http://www.w3.org/2000/svg" xml:space="preserve" width="611px" height="611px" version="1.1" style="shape-rendering:geometricPrecision; text-rendering:geometricPrecision; image-rendering:optimizeQuality; fill-rule:evenodd; clip-rule:evenodd"
viewBox="0 0 230.44 230.43"
 xmlns:xlink="http://www.w3.org/1999/xlink">
 <defs>
  <style type="text/css">
   <![CDATA[
    .fil0 {fill:#990099}
    .fil1 {fill:white}
   ]]>
  </style>
 </defs>
 <g id="Layer_x0020_1">
  <metadata id="CorelCorpID_0Corel-Layer"/>
  <g id="_2138530795792">
   <path class="fil0" d="M135.02 189.89l0 17.05c0,12.96 -10.53,23.49 -23.49,23.49l-27.61 0c-46.34,0 -83.92,-37.58 -83.92,-83.92 0,-38.95 26.56,-71.83 62.59,-81.23 0,-13.93 0,-27.86 0,-41.79 0,-12.96 10.53,-23.49 23.49,-23.49l25.45 0c13.06,0 23.49,10.59 23.49,23.61 3.79,-0.52 7.63,-0.78 11.49,-0.78 46.34,0 83.93,37.58 83.93,83.92 0,46.35 -37.6,84.01 -83.97,83.93 -3.78,-0.01 -7.62,-0.27 -11.45,-0.79z"/>
   <path class="fil1" d="M146.51 43.14c35.13,0 63.61,28.48 63.61,63.61 0,35.13 -28.48,63.61 -63.61,63.61 -9.75,-0.08 -20.4,-2.31 -29.02,-6.99 -4.06,-2.2 -0.41,-4.39 1.98,-6.79 5.49,-5.5 10.99,-11.01 16.5,-16.5 3.34,-3.33 3.68,-1.95 8.08,-1.61 0.84,0.06 1.62,0.08 2.46,0.09 17.57,0 31.81,-14.24 31.81,-31.81 0,-17.56 -14.24,-31.8 -31.81,-31.8 -8.3,0.07 -15.4,2.89 -21.43,8.35 -3.31,2.99 -2.89,2.59 -6.8,0.46 -9.42,-5.14 -19.24,-8.01 -29.95,-8.64 -6.66,-0.37 -5.43,-4.82 -5.43,-10.09 0,-13.85 0,-27.69 0,-41.54 0,-1.74 1.43,-3.18 3.18,-3.18l25.45 0c1.75,0 3.18,1.44 3.18,3.18l0 28.17c9.35,-5.42 20.22,-8.52 31.8,-8.52zm-34.98 135.18l-27.61 0c-17.56,0 -31.8,-14.24 -31.8,-31.81 0,-17.56 14.24,-31.8 31.8,-31.8 6.07,0 11.74,1.69 16.56,4.64l-27.34 27.34c-1.24,1.24 -1.24,3.26 0,4.5l17.99 17.99c1.24,1.24 3.26,1.24 4.5,0 14.62,-14.62 29.21,-29.32 43.89,-43.88 3.77,-3.74 2.49,-5.23 0.04,-9.64 -11.35,-20.43 -32.33,-32.56 -55.64,-32.76 -35.13,0 -63.61,28.48 -63.61,63.61 0,35.13 28.48,63.61 63.61,63.61l27.61 0c1.74,0 3.18,-1.43 3.18,-3.18l0 -25.44c0,-1.75 -1.45,-3.18 -3.18,-3.18z"/>
  </g>
 </g>
</svg>
