<?xml version="1.0" encoding="UTF-8"?>
<!DOCTYPE svg PUBLIC "-//W3C//DTD SVG 1.1//EN" "http://www.w3.org/Graphics/SVG/1.1/DTD/svg11.dtd">
<!-- Creator: CorelDRAW 2017 -->
<svg xmlns="http://www.w3.org/2000/svg" xml:space="preserve" width="332px" height="112px" version="1.1" style="shape-rendering:geometricPrecision; text-rendering:geometricPrecision; image-rendering:optimizeQuality; fill-rule:evenodd; clip-rule:evenodd"
viewBox="0 0 59.12 20"
 xmlns:xlink="http://www.w3.org/1999/xlink">
 <defs>
  <style type="text/css">
   <![CDATA[
    .fil0 {fill:#1A1A1A}
   ]]>
  </style>
 </defs>
 <g id="Layer_x0020_1">
  <metadata id="CorelCorpID_0Corel-Layer"/>
  <g id="_2138496883280">
   <path class="fil0" d="M56.17 12.08l0 7.43c0,0.27 -0.21,0.49 -0.48,0.49 -0.28,0 -0.49,-0.22 -0.49,-0.49l0 -7.43 -2.45 0c-0.27,0 -0.5,-0.21 -0.5,-0.48 0,-0.28 0.22,-0.5 0.5,-0.5l5.87 0c0.28,0 0.5,0.22 0.5,0.5 0,0.27 -0.23,0.48 -0.5,0.48l-2.45 0zm-6.64 0.74c-1.77,4.03 -1.49,3.39 -3.01,6.89 -0.11,0.25 -0.4,0.35 -0.65,0.25 -0.25,-0.11 -0.37,-0.41 -0.26,-0.65l3.46 -7.92c0.09,-0.18 0.26,-0.29 0.46,-0.29 0.2,0 0.37,0.12 0.45,0.29l3.46 7.92c0.11,0.24 0,0.54 -0.25,0.65 -0.06,0.02 -0.13,0.04 -0.2,0.04 -0.2,0 -0.37,-0.11 -0.45,-0.29 -1.71,-3.87 -1.06,-2.42 -3.01,-6.89zm-16.1 0c-1.77,4.03 -1.49,3.39 -3.01,6.89 -0.11,0.25 -0.4,0.35 -0.65,0.25 -0.25,-0.11 -0.37,-0.41 -0.26,-0.65l3.46 -7.92c0.09,-0.18 0.26,-0.29 0.46,-0.29 0.2,0 0.38,0.12 0.45,0.29l3.46 7.92c0.11,0.24 0,0.54 -0.25,0.65 -0.06,0.02 -0.13,0.04 -0.2,0.04 -0.2,0 -0.37,-0.11 -0.45,-0.29 -1.71,-3.87 -1.06,-2.42 -3.01,-6.89zm-16.02 7.18c-1.71,0 -3.18,-0.97 -3.18,-2.55 0,-0.28 0.24,-0.5 0.56,-0.5 0.31,0 0.56,0.23 0.56,0.5 0,1.02 0.99,1.56 2.06,1.56 1.08,0 2.08,-0.54 2.08,-1.56 0,-1.12 -1.18,-1.34 -2.19,-1.61 -1.43,-0.36 -2.86,-0.79 -2.86,-2.36 0,-1.47 1.38,-2.38 2.97,-2.38 1.6,0 2.99,0.9 2.99,2.38 0,0.28 -0.24,0.5 -0.56,0.5 -0.32,0 -0.56,-0.22 -0.56,-0.5 0,-0.92 -0.91,-1.4 -1.87,-1.4 -0.96,0 -1.85,0.49 -1.85,1.4 0,0.99 1.18,1.19 2.05,1.42 1.55,0.4 3,0.86 3,2.55 0,1.58 -1.49,2.55 -3.2,2.55zm22.07 -0.49c0,0.27 -0.21,0.49 -0.49,0.49 -0.28,0 -0.5,-0.22 -0.5,-0.49l0 -7.91c0,-0.28 0.22,-0.5 0.5,-0.5 0.96,0 1.93,0 2.89,0 1.52,0 2.77,1.24 2.77,2.76l0 0c0,1.47 -1.15,2.67 -2.6,2.76l2.46 2.55c0.18,0.2 0.19,0.51 -0.02,0.69 -0.09,0.09 -0.21,0.14 -0.34,0.14 -0.14,0 -0.26,-0.05 -0.36,-0.15l-3.1 -3.22 -1.21 0 0 2.88zm0 -7.43l0 3.57 2.4 0c0.98,0 1.79,-0.81 1.79,-1.79 0,-0.98 -0.81,-1.78 -1.79,-1.78l-2.4 0zm-34.04 3.12c0.8,0.45 1.31,1.3 1.31,2.24 0,1.41 -1.16,2.56 -2.57,2.56l-3.68 0c-0.28,0 -0.5,-0.22 -0.5,-0.49l0 -7.91c0,-0.28 0.22,-0.5 0.5,-0.5l3.3 0c1.3,0 2.38,1.06 2.38,2.37 0,0.65 -0.27,1.28 -0.74,1.73zm-4.45 -3.12l0 2.79 2.81 0c0.77,0 1.39,-0.63 1.39,-1.4 0,-0.76 -0.63,-1.39 -1.39,-1.39l-2.81 0zm0 3.77l0 3.16 3.19 0c0.87,0 1.57,-0.71 1.57,-1.57 0,-0.87 -0.7,-1.59 -1.57,-1.59l-3.19 0zm7.6 -3.77l0 2.79 3.74 0c0.26,0 0.49,0.22 0.49,0.48 0,0.28 -0.22,0.5 -0.49,0.5l-3.74 0 0 3.16 4.67 0c0.26,0 0.49,0.23 0.49,0.5 0,0.27 -0.22,0.49 -0.49,0.49l-5.17 0c-0.27,0 -0.49,-0.22 -0.49,-0.49l0 -7.91c0,-0.28 0.22,-0.5 0.49,-0.5l5.17 0c0.27,0 0.49,0.22 0.49,0.5 0,0.26 -0.23,0.48 -0.49,0.48l-4.67 0zm18.92 4.27l-4.95 0 0 3.16c0,0.27 -0.22,0.49 -0.49,0.49 -0.28,0 -0.5,-0.22 -0.5,-0.49l0 -7.91c0,-0.28 0.22,-0.5 0.5,-0.5 0.27,0 0.49,0.22 0.49,0.5l0 3.76 4.95 0 0 -3.76c0,-0.28 0.22,-0.5 0.5,-0.5 0.27,0 0.49,0.22 0.49,0.5l0 7.91c0,0.27 -0.22,0.49 -0.49,0.49 -0.28,0 -0.5,-0.22 -0.5,-0.49l0 -3.16z"/>
   <path class="fil0" d="M29.04 1.93l0 6.48c0,0.28 -0.22,0.5 -0.49,0.5 -0.28,0 -0.5,-0.22 -0.5,-0.5l0 -7.91c0,-0.21 0.14,-0.4 0.34,-0.48 0.2,-0.06 0.42,0.01 0.54,0.17l5.36 6.8 0 -6.49c0,-0.27 0.22,-0.49 0.49,-0.49 0.28,0 0.5,0.21 0.5,0.49l0 7.91c0,0.22 -0.13,0.41 -0.34,0.47 -0.05,0.02 -0.1,0.03 -0.16,0.03 -0.15,0 -0.3,-0.07 -0.39,-0.19l-5.35 -6.79zm-5.79 -0.2c-1.77,4.03 -1.49,3.39 -3.01,6.89 -0.11,0.25 -0.41,0.35 -0.65,0.25 -0.25,-0.11 -0.37,-0.41 -0.27,-0.65l3.47 -7.92c0.09,-0.18 0.26,-0.29 0.46,-0.29 0.19,0 0.37,0.12 0.45,0.3l3.46 7.91c0.1,0.24 0,0.54 -0.25,0.65 -0.07,0.02 -0.13,0.04 -0.2,0.04 -0.2,0 -0.38,-0.11 -0.45,-0.29 -1.71,-3.87 -1.07,-2.42 -3.01,-6.89zm-14.99 6.69c0,0.27 -0.22,0.49 -0.5,0.49 -0.28,0 -0.5,-0.22 -0.5,-0.49l0 -7.91c0,-0.28 0.22,-0.5 0.5,-0.5 0.96,0 1.93,0 2.89,0 1.52,0 2.77,1.24 2.77,2.76l0 0c0,1.47 -1.15,2.67 -2.6,2.76l2.46 2.55c0.18,0.2 0.19,0.51 -0.02,0.69 -0.09,0.09 -0.21,0.14 -0.34,0.14 -0.14,0 -0.26,-0.05 -0.35,-0.15l-3.11 -3.22 -1.2 0 0 2.88zm0 -7.43l0 3.57 2.39 0c0.98,0 1.79,-0.81 1.79,-1.79 0,-0.98 -0.81,-1.78 -1.79,-1.78l-2.39 0zm-7.27 0l0 2.79 3.74 0c0.27,0 0.5,0.22 0.5,0.48 0,0.28 -0.23,0.5 -0.5,0.5l-3.74 0 0 3.16 4.67 0c0.26,0 0.49,0.23 0.49,0.5 0,0.27 -0.22,0.49 -0.49,0.49l-5.16 0c-0.28,0 -0.5,-0.22 -0.5,-0.49l0 -7.91c0,-0.28 0.22,-0.5 0.5,-0.5l5.16 0c0.27,0 0.49,0.22 0.49,0.5 0,0.26 -0.23,0.48 -0.49,0.48l-4.67 0zm14.63 0l0 3.2 3.34 0c0.27,0 0.49,0.21 0.49,0.48 0,0.28 -0.22,0.49 -0.49,0.49l-3.34 0 0 3.26c0,0.27 -0.23,0.49 -0.5,0.49 -0.27,0 -0.49,-0.22 -0.49,-0.49l0 -7.91c0,-0.28 0.22,-0.5 0.49,-0.5l4.76 0c0.27,0 0.5,0.22 0.5,0.5 0,0.26 -0.23,0.48 -0.5,0.48l-4.26 0z"/>
  </g>
 </g>
</svg>
