<?xml version="1.0" encoding="UTF-8"?>
<!DOCTYPE svg PUBLIC "-//W3C//DTD SVG 1.1//EN" "http://www.w3.org/Graphics/SVG/1.1/DTD/svg11.dtd">
<!-- Creator: CorelDRAW 2017 -->
<svg xmlns="http://www.w3.org/2000/svg" xml:space="preserve" width="504px" height="156px" version="1.1" style="shape-rendering:geometricPrecision; text-rendering:geometricPrecision; image-rendering:optimizeQuality; fill-rule:evenodd; clip-rule:evenodd"
viewBox="0 0 115.11 35.54"
 xmlns:xlink="http://www.w3.org/1999/xlink">
 <defs>
  <style type="text/css">
   <![CDATA[
    .fil1 {fill:#1A1A1A}
    .fil0 {fill:#990099}
   ]]>
  </style>
 </defs>
 <g id="Layer_x0020_1">
  <metadata id="CorelCorpID_0Corel-Layer"/>
  <path class="fil0" d="M23.63 4.27c6.58,0 11.91,5.34 11.91,11.92 0,6.57 -5.33,11.91 -11.91,11.91 -1.83,-0.02 -3.82,-0.44 -5.43,-1.31 -0.77,-0.42 -0.08,-0.83 0.37,-1.27 1.02,-1.04 2.05,-2.07 3.09,-3.1 0.62,-0.62 0.68,-0.36 1.51,-0.3 0.16,0.01 0.3,0.02 0.46,0.02 3.29,0 5.95,-2.67 5.95,-5.95 0,-3.29 -2.66,-5.96 -5.95,-5.96 -1.55,0.01 -2.89,0.54 -4.01,1.56 -0.62,0.56 -0.55,0.49 -1.28,0.09 -1.76,-0.96 -3.6,-1.5 -5.61,-1.62 -1.24,-0.07 -1.01,-0.9 -1.01,-1.89 0,-2.59 0,-5.18 0,-7.77 0,-0.33 0.27,-0.6 0.59,-0.6l4.77 0c0.33,0 0.59,0.27 0.59,0.6l0 5.27c1.76,-1.01 3.79,-1.6 5.96,-1.6zm-6.55 25.31l-5.17 0c-3.29,0 -5.95,-2.66 -5.95,-5.95 0,-3.29 2.66,-5.96 5.95,-5.96 1.14,0 2.2,0.32 3.1,0.87l-5.12 5.12c-0.23,0.23 -0.23,0.61 0,0.84l3.37 3.37c0.23,0.24 0.61,0.24 0.84,0 2.74,-2.73 5.47,-5.49 8.22,-8.21 0.71,-0.7 0.47,-0.98 0.01,-1.81 -2.13,-3.82 -6.06,-6.09 -10.42,-6.13 -6.58,0 -11.91,5.33 -11.91,11.91 0,6.58 5.33,11.91 11.91,11.91l5.17 0c0.33,0 0.59,-0.27 0.59,-0.6l0 -4.76c0,-0.33 -0.27,-0.6 -0.59,-0.6z"/>
  <g id="_2138535193552">
   <path class="fil1" d="M111.34 20.43l0 9.51c0,0.35 -0.27,0.64 -0.62,0.64 -0.35,0 -0.63,-0.28 -0.63,-0.64l0 -9.51 -3.14 0c-0.35,0 -0.63,-0.27 -0.63,-0.62 0,-0.35 0.27,-0.63 0.63,-0.63l7.53 0c0.35,0 0.63,0.28 0.63,0.63 0,0.35 -0.29,0.62 -0.63,0.62l-3.14 0zm-8.51 0.95c-2.26,5.17 -1.91,4.34 -3.85,8.82 -0.14,0.32 -0.52,0.46 -0.83,0.32 -0.32,-0.14 -0.48,-0.52 -0.34,-0.83l4.43 -10.14c0.12,-0.23 0.34,-0.37 0.59,-0.37 0.25,0 0.48,0.15 0.58,0.38l4.43 10.13c0.14,0.31 0,0.69 -0.32,0.83 -0.08,0.03 -0.17,0.06 -0.25,0.06 -0.26,0 -0.48,-0.14 -0.58,-0.38 -2.19,-4.96 -1.36,-3.09 -3.86,-8.82zm-20.62 0c-2.26,5.17 -1.91,4.34 -3.85,8.82 -0.14,0.32 -0.52,0.46 -0.83,0.32 -0.32,-0.14 -0.48,-0.52 -0.34,-0.83l4.44 -10.14c0.11,-0.23 0.33,-0.37 0.58,-0.37 0.25,0 0.48,0.15 0.58,0.38l4.43 10.13c0.14,0.31 0,0.69 -0.32,0.83 -0.08,0.03 -0.16,0.06 -0.25,0.06 -0.26,0 -0.48,-0.14 -0.58,-0.38 -2.19,-4.96 -1.36,-3.09 -3.86,-8.82zm-20.51 9.2c-2.19,0 -4.08,-1.25 -4.08,-3.27 0,-0.36 0.31,-0.64 0.72,-0.64 0.39,0 0.72,0.29 0.72,0.64 0,1.31 1.26,2 2.64,2 1.37,0 2.65,-0.69 2.65,-2 0,-1.44 -1.5,-1.72 -2.8,-2.06 -1.82,-0.46 -3.66,-1.01 -3.66,-3.02 0,-1.89 1.76,-3.05 3.81,-3.05 2.05,0 3.83,1.15 3.83,3.05 0,0.35 -0.32,0.63 -0.72,0.63 -0.41,0 -0.73,-0.28 -0.73,-0.63 0,-1.18 -1.15,-1.8 -2.38,-1.8 -1.23,0 -2.37,0.63 -2.37,1.8 0,1.26 1.5,1.52 2.63,1.81 1.97,0.51 3.84,1.11 3.84,3.27 0,2.02 -1.91,3.27 -4.1,3.27zm28.27 -0.64c0,0.36 -0.28,0.64 -0.64,0.64 -0.35,0 -0.63,-0.28 -0.63,-0.64l0 -10.13c0,-0.35 0.28,-0.63 0.63,-0.63 1.24,0 2.47,0 3.71,0 1.95,0 3.54,1.59 3.54,3.54l0 0c0,1.87 -1.48,3.41 -3.32,3.53l3.14 3.26c0.24,0.25 0.24,0.65 -0.02,0.89 -0.11,0.12 -0.27,0.18 -0.44,0.18 -0.18,0 -0.34,-0.06 -0.45,-0.2l-3.98 -4.12 -1.54 0 0 3.68zm0 -9.51l0 4.57 3.07 0c1.25,0 2.28,-1.03 2.28,-2.28 0,-1.26 -1.03,-2.29 -2.28,-2.29l-3.07 0zm-43.61 3.99c1.03,0.59 1.68,1.68 1.68,2.87 0,1.81 -1.48,3.29 -3.29,3.29l-4.72 0c-0.35,0 -0.63,-0.28 -0.63,-0.64l0 -10.13c0,-0.35 0.28,-0.63 0.63,-0.63l4.23 0c1.67,0 3.05,1.36 3.05,3.03 0,0.84 -0.35,1.64 -0.95,2.21zm-5.69 -3.99l0 3.58 3.59 0c0.99,0 1.78,-0.82 1.78,-1.8 0,-0.98 -0.8,-1.78 -1.78,-1.78l-3.59 0zm0 4.83l0 4.05 4.08 0c1.11,0 2.02,-0.91 2.02,-2.02 0,-1.11 -0.91,-2.03 -2.02,-2.03l-4.08 0zm9.73 -4.83l0 3.58 4.79 0c0.34,0 0.63,0.27 0.63,0.62 0,0.34 -0.29,0.63 -0.63,0.63l-4.79 0 0 4.05 5.97 0c0.34,0 0.64,0.29 0.64,0.63 0,0.35 -0.29,0.64 -0.64,0.64l-6.61 0c-0.35,0 -0.63,-0.28 -0.63,-0.64l0 -10.13c0,-0.35 0.28,-0.63 0.63,-0.63l6.61 0c0.35,0 0.64,0.28 0.64,0.63 0,0.34 -0.3,0.62 -0.64,0.62l-5.97 0zm24.23 5.48l-6.34 0 0 4.03c0,0.35 -0.28,0.64 -0.63,0.64 -0.36,0 -0.63,-0.28 -0.63,-0.64l0 -10.13c0,-0.35 0.27,-0.63 0.63,-0.63 0.35,0 0.63,0.28 0.63,0.63l0 4.83 6.34 0 0 -4.83c0,-0.35 0.28,-0.63 0.64,-0.63 0.34,0 0.63,0.28 0.63,0.63l0 10.13c0,0.35 -0.29,0.64 -0.63,0.64 -0.36,0 -0.64,-0.28 -0.64,-0.64l0 -4.03z"/>
   <path class="fil1" d="M76.59 7.43l0 8.31c0,0.35 -0.28,0.63 -0.63,0.63 -0.36,0 -0.64,-0.28 -0.64,-0.63l0 -10.14c0,-0.27 0.18,-0.51 0.44,-0.61 0.25,-0.08 0.54,0.01 0.69,0.22l6.86 8.7 0 -8.31c0,-0.34 0.29,-0.63 0.63,-0.63 0.36,0 0.64,0.28 0.64,0.63l0 10.14c0,0.27 -0.16,0.51 -0.43,0.6 -0.07,0.01 -0.13,0.03 -0.21,0.03 -0.19,0 -0.38,-0.09 -0.49,-0.24l-6.86 -8.7zm-7.42 -0.25c-2.27,5.16 -1.91,4.34 -3.85,8.82 -0.14,0.32 -0.52,0.46 -0.84,0.32 -0.31,-0.14 -0.47,-0.52 -0.33,-0.84l4.43 -10.13c0.12,-0.23 0.33,-0.37 0.59,-0.37 0.25,0 0.48,0.14 0.57,0.37l4.44 10.13c0.13,0.32 0,0.7 -0.32,0.84 -0.09,0.03 -0.17,0.06 -0.26,0.06 -0.25,0 -0.48,-0.15 -0.57,-0.38 -2.19,-4.96 -1.37,-3.09 -3.86,-8.82zm-19.2 8.56c0,0.36 -0.28,0.64 -0.63,0.64 -0.36,0 -0.64,-0.28 -0.64,-0.64l0 -10.13c0,-0.36 0.28,-0.63 0.64,-0.63 1.23,0 2.47,0 3.7,0 1.95,0 3.54,1.59 3.54,3.53l0 0c0,1.88 -1.47,3.42 -3.32,3.54l3.15 3.26c0.23,0.25 0.23,0.65 -0.02,0.89 -0.12,0.11 -0.28,0.18 -0.44,0.18 -0.18,0 -0.34,-0.07 -0.46,-0.2l-3.98 -4.13 -1.54 0 0 3.69zm0 -9.51l0 4.57 3.07 0c1.26,0 2.29,-1.03 2.29,-2.29 0,-1.25 -1.03,-2.28 -2.29,-2.28l-3.07 0zm-9.3 0l0 3.57 4.79 0c0.34,0 0.63,0.28 0.63,0.62 0,0.35 -0.29,0.64 -0.63,0.64l-4.79 0 0 4.05 5.97 0c0.34,0 0.64,0.29 0.64,0.63 0,0.35 -0.29,0.64 -0.64,0.64l-6.61 0c-0.35,0 -0.63,-0.28 -0.63,-0.64l0 -10.13c0,-0.36 0.28,-0.63 0.63,-0.63l6.61 0c0.35,0 0.64,0.28 0.64,0.63 0,0.34 -0.3,0.62 -0.64,0.62l-5.97 0zm18.73 0l0 4.09 4.27 0c0.35,0 0.64,0.27 0.64,0.62 0,0.36 -0.28,0.64 -0.64,0.64l-4.27 0 0 4.16c0,0.35 -0.29,0.64 -0.63,0.64 -0.36,0 -0.64,-0.28 -0.64,-0.64l0 -10.13c0,-0.36 0.28,-0.63 0.64,-0.63l6.09 0c0.35,0 0.64,0.28 0.64,0.63 0,0.34 -0.3,0.62 -0.64,0.62l-5.46 0z"/>
  </g>
 </g>
</svg>
